<?xml version="1.0" encoding="utf-8" standalone="no"?>
<!DOCTYPE svg PUBLIC "-//W3C//DTD SVG 1.1//EN"
  "http://www.w3.org/Graphics/SVG/1.1/DTD/svg11.dtd">
<svg xmlns:xlink="http://www.w3.org/1999/xlink" width="460.8pt" height="345.6pt" viewBox="0 0 460.8 345.6" xmlns="http://www.w3.org/2000/svg" version="1.1">
 <metadata>
  <rdf:RDF xmlns:dc="http://purl.org/dc/elements/1.1/" xmlns:cc="http://creativecommons.org/ns#" xmlns:rdf="http://www.w3.org/1999/02/22-rdf-syntax-ns#">
   <cc:Work>
    <dc:type rdf:resource="http://purl.org/dc/dcmitype/StillImage"/>
    <dc:date>2022-11-09T03:00:07.410921</dc:date>
    <dc:format>image/svg+xml</dc:format>
    <dc:creator>
     <cc:Agent>
      <dc:title>Matplotlib v3.6.2, https://matplotlib.org/</dc:title>
     </cc:Agent>
    </dc:creator>
   </cc:Work>
  </rdf:RDF>
 </metadata>
 <defs>
  <style type="text/css">*{stroke-linejoin: round; stroke-linecap: butt}</style>
 </defs>
 <g id="figure_1">
  <g id="patch_1">
   <path d="M 0 345.6 
L 460.8 345.6 
L 460.8 0 
L 0 0 
z
" style="fill: #ffffff"/>
  </g>
  <g id="axes_1">
   <g id="patch_2">
    <path d="M 57.6 307.584 
L 414.72 307.584 
L 414.72 41.472 
L 57.6 41.472 
z
" style="fill: #ffffff"/>
   </g>
   <g id="patch_3">
    <path d="M 73.832727 307.584 
L 78.341818 307.584 
L 78.341818 293.958194 
L 73.832727 293.958194 
z
" clip-path="url(#pc881bd25af)" style="fill: #008000; opacity: 0.75"/>
   </g>
   <g id="patch_4">
    <path d="M 78.341818 307.584 
L 82.850909 307.584 
L 82.850909 291.233032 
L 78.341818 291.233032 
z
" clip-path="url(#pc881bd25af)" style="fill: #008000; opacity: 0.75"/>
   </g>
   <g id="patch_5">
    <path d="M 82.850909 307.584 
L 87.36 307.584 
L 87.36 250.355613 
L 82.850909 250.355613 
z
" clip-path="url(#pc881bd25af)" style="fill: #008000; opacity: 0.75"/>
   </g>
   <g id="patch_6">
    <path d="M 87.36 307.584 
L 91.869091 307.584 
L 91.869091 157.700129 
L 87.36 157.700129 
z
" clip-path="url(#pc881bd25af)" style="fill: #008000; opacity: 0.75"/>
   </g>
   <g id="patch_7">
    <path d="M 91.869091 307.584 
L 96.378182 307.584 
L 96.378182 100.471742 
L 91.869091 100.471742 
z
" clip-path="url(#pc881bd25af)" style="fill: #008000; opacity: 0.75"/>
   </g>
   <g id="patch_8">
    <path d="M 96.378182 307.584 
L 100.887273 307.584 
L 100.887273 54.144 
L 96.378182 54.144 
z
" clip-path="url(#pc881bd25af)" style="fill: #008000; opacity: 0.75"/>
   </g>
   <g id="patch_9">
    <path d="M 100.887273 307.584 
L 105.396364 307.584 
L 105.396364 81.395613 
L 100.887273 81.395613 
z
" clip-path="url(#pc881bd25af)" style="fill: #008000; opacity: 0.75"/>
   </g>
   <g id="patch_10">
    <path d="M 105.396364 307.584 
L 109.905455 307.584 
L 109.905455 92.296258 
L 105.396364 92.296258 
z
" clip-path="url(#pc881bd25af)" style="fill: #008000; opacity: 0.75"/>
   </g>
   <g id="patch_11">
    <path d="M 109.905455 307.584 
L 114.414545 307.584 
L 114.414545 141.349161 
L 109.905455 141.349161 
z
" clip-path="url(#pc881bd25af)" style="fill: #008000; opacity: 0.75"/>
   </g>
   <g id="patch_12">
    <path d="M 114.414545 307.584 
L 118.923636 307.584 
L 118.923636 176.776258 
L 114.414545 176.776258 
z
" clip-path="url(#pc881bd25af)" style="fill: #008000; opacity: 0.75"/>
   </g>
   <g id="patch_13">
    <path d="M 118.923636 307.584 
L 123.432727 307.584 
L 123.432727 225.829161 
L 118.923636 225.829161 
z
" clip-path="url(#pc881bd25af)" style="fill: #008000; opacity: 0.75"/>
   </g>
   <g id="patch_14">
    <path d="M 123.432727 307.584 
L 127.941818 307.584 
L 127.941818 228.554323 
L 123.432727 228.554323 
z
" clip-path="url(#pc881bd25af)" style="fill: #008000; opacity: 0.75"/>
   </g>
   <g id="patch_15">
    <path d="M 127.941818 307.584 
L 132.450909 307.584 
L 132.450909 258.531097 
L 127.941818 258.531097 
z
" clip-path="url(#pc881bd25af)" style="fill: #008000; opacity: 0.75"/>
   </g>
   <g id="patch_16">
    <path d="M 132.450909 307.584 
L 136.96 307.584 
L 136.96 253.080774 
L 132.450909 253.080774 
z
" clip-path="url(#pc881bd25af)" style="fill: #008000; opacity: 0.75"/>
   </g>
   <g id="patch_17">
    <path d="M 136.96 307.584 
L 141.469091 307.584 
L 141.469091 272.156903 
L 136.96 272.156903 
z
" clip-path="url(#pc881bd25af)" style="fill: #008000; opacity: 0.75"/>
   </g>
   <g id="patch_18">
    <path d="M 141.469091 307.584 
L 145.978182 307.584 
L 145.978182 277.607226 
L 141.469091 277.607226 
z
" clip-path="url(#pc881bd25af)" style="fill: #008000; opacity: 0.75"/>
   </g>
   <g id="patch_19">
    <path d="M 145.978182 307.584 
L 150.487273 307.584 
L 150.487273 274.882065 
L 145.978182 274.882065 
z
" clip-path="url(#pc881bd25af)" style="fill: #008000; opacity: 0.75"/>
   </g>
   <g id="patch_20">
    <path d="M 150.487273 307.584 
L 154.996364 307.584 
L 154.996364 288.507871 
L 150.487273 288.507871 
z
" clip-path="url(#pc881bd25af)" style="fill: #008000; opacity: 0.75"/>
   </g>
   <g id="patch_21">
    <path d="M 154.996364 307.584 
L 159.505455 307.584 
L 159.505455 291.233032 
L 154.996364 291.233032 
z
" clip-path="url(#pc881bd25af)" style="fill: #008000; opacity: 0.75"/>
   </g>
   <g id="patch_22">
    <path d="M 159.505455 307.584 
L 164.014545 307.584 
L 164.014545 293.958194 
L 159.505455 293.958194 
z
" clip-path="url(#pc881bd25af)" style="fill: #008000; opacity: 0.75"/>
   </g>
   <g id="patch_23">
    <path d="M 164.014545 307.584 
L 168.523636 307.584 
L 168.523636 293.958194 
L 164.014545 293.958194 
z
" clip-path="url(#pc881bd25af)" style="fill: #008000; opacity: 0.75"/>
   </g>
   <g id="patch_24">
    <path d="M 168.523636 307.584 
L 173.032727 307.584 
L 173.032727 299.408516 
L 168.523636 299.408516 
z
" clip-path="url(#pc881bd25af)" style="fill: #008000; opacity: 0.75"/>
   </g>
   <g id="patch_25">
    <path d="M 173.032727 307.584 
L 177.541818 307.584 
L 177.541818 299.408516 
L 173.032727 299.408516 
z
" clip-path="url(#pc881bd25af)" style="fill: #008000; opacity: 0.75"/>
   </g>
   <g id="patch_26">
    <path d="M 177.541818 307.584 
L 182.050909 307.584 
L 182.050909 302.133677 
L 177.541818 302.133677 
z
" clip-path="url(#pc881bd25af)" style="fill: #008000; opacity: 0.75"/>
   </g>
   <g id="patch_27">
    <path d="M 182.050909 307.584 
L 186.56 307.584 
L 186.56 299.408516 
L 182.050909 299.408516 
z
" clip-path="url(#pc881bd25af)" style="fill: #008000; opacity: 0.75"/>
   </g>
   <g id="patch_28">
    <path d="M 186.56 307.584 
L 191.069091 307.584 
L 191.069091 296.683355 
L 186.56 296.683355 
z
" clip-path="url(#pc881bd25af)" style="fill: #008000; opacity: 0.75"/>
   </g>
   <g id="patch_29">
    <path d="M 191.069091 307.584 
L 195.578182 307.584 
L 195.578182 307.584 
L 191.069091 307.584 
z
" clip-path="url(#pc881bd25af)" style="fill: #008000; opacity: 0.75"/>
   </g>
   <g id="patch_30">
    <path d="M 195.578182 307.584 
L 200.087273 307.584 
L 200.087273 299.408516 
L 195.578182 299.408516 
z
" clip-path="url(#pc881bd25af)" style="fill: #008000; opacity: 0.75"/>
   </g>
   <g id="patch_31">
    <path d="M 200.087273 307.584 
L 204.596364 307.584 
L 204.596364 304.858839 
L 200.087273 304.858839 
z
" clip-path="url(#pc881bd25af)" style="fill: #008000; opacity: 0.75"/>
   </g>
   <g id="patch_32">
    <path d="M 204.596364 307.584 
L 209.105455 307.584 
L 209.105455 307.584 
L 204.596364 307.584 
z
" clip-path="url(#pc881bd25af)" style="fill: #008000; opacity: 0.75"/>
   </g>
   <g id="patch_33">
    <path d="M 209.105455 307.584 
L 213.614545 307.584 
L 213.614545 307.584 
L 209.105455 307.584 
z
" clip-path="url(#pc881bd25af)" style="fill: #008000; opacity: 0.75"/>
   </g>
   <g id="patch_34">
    <path d="M 213.614545 307.584 
L 218.123636 307.584 
L 218.123636 304.858839 
L 213.614545 304.858839 
z
" clip-path="url(#pc881bd25af)" style="fill: #008000; opacity: 0.75"/>
   </g>
   <g id="patch_35">
    <path d="M 218.123636 307.584 
L 222.632727 307.584 
L 222.632727 302.133677 
L 218.123636 302.133677 
z
" clip-path="url(#pc881bd25af)" style="fill: #008000; opacity: 0.75"/>
   </g>
   <g id="patch_36">
    <path d="M 222.632727 307.584 
L 227.141818 307.584 
L 227.141818 307.584 
L 222.632727 307.584 
z
" clip-path="url(#pc881bd25af)" style="fill: #008000; opacity: 0.75"/>
   </g>
   <g id="patch_37">
    <path d="M 227.141818 307.584 
L 231.650909 307.584 
L 231.650909 304.858839 
L 227.141818 304.858839 
z
" clip-path="url(#pc881bd25af)" style="fill: #008000; opacity: 0.75"/>
   </g>
   <g id="patch_38">
    <path d="M 231.650909 307.584 
L 236.16 307.584 
L 236.16 307.584 
L 231.650909 307.584 
z
" clip-path="url(#pc881bd25af)" style="fill: #008000; opacity: 0.75"/>
   </g>
   <g id="patch_39">
    <path d="M 236.16 307.584 
L 240.669091 307.584 
L 240.669091 307.584 
L 236.16 307.584 
z
" clip-path="url(#pc881bd25af)" style="fill: #008000; opacity: 0.75"/>
   </g>
   <g id="patch_40">
    <path d="M 240.669091 307.584 
L 245.178182 307.584 
L 245.178182 307.584 
L 240.669091 307.584 
z
" clip-path="url(#pc881bd25af)" style="fill: #008000; opacity: 0.75"/>
   </g>
   <g id="patch_41">
    <path d="M 245.178182 307.584 
L 249.687273 307.584 
L 249.687273 307.584 
L 245.178182 307.584 
z
" clip-path="url(#pc881bd25af)" style="fill: #008000; opacity: 0.75"/>
   </g>
   <g id="patch_42">
    <path d="M 249.687273 307.584 
L 254.196364 307.584 
L 254.196364 302.133677 
L 249.687273 302.133677 
z
" clip-path="url(#pc881bd25af)" style="fill: #008000; opacity: 0.75"/>
   </g>
   <g id="patch_43">
    <path d="M 254.196364 307.584 
L 258.705455 307.584 
L 258.705455 304.858839 
L 254.196364 304.858839 
z
" clip-path="url(#pc881bd25af)" style="fill: #008000; opacity: 0.75"/>
   </g>
   <g id="patch_44">
    <path d="M 258.705455 307.584 
L 263.214545 307.584 
L 263.214545 307.584 
L 258.705455 307.584 
z
" clip-path="url(#pc881bd25af)" style="fill: #008000; opacity: 0.75"/>
   </g>
   <g id="patch_45">
    <path d="M 263.214545 307.584 
L 267.723636 307.584 
L 267.723636 307.584 
L 263.214545 307.584 
z
" clip-path="url(#pc881bd25af)" style="fill: #008000; opacity: 0.75"/>
   </g>
   <g id="patch_46">
    <path d="M 267.723636 307.584 
L 272.232727 307.584 
L 272.232727 307.584 
L 267.723636 307.584 
z
" clip-path="url(#pc881bd25af)" style="fill: #008000; opacity: 0.75"/>
   </g>
   <g id="patch_47">
    <path d="M 272.232727 307.584 
L 276.741818 307.584 
L 276.741818 307.584 
L 272.232727 307.584 
z
" clip-path="url(#pc881bd25af)" style="fill: #008000; opacity: 0.75"/>
   </g>
   <g id="patch_48">
    <path d="M 276.741818 307.584 
L 281.250909 307.584 
L 281.250909 304.858839 
L 276.741818 304.858839 
z
" clip-path="url(#pc881bd25af)" style="fill: #008000; opacity: 0.75"/>
   </g>
   <g id="patch_49">
    <path d="M 281.250909 307.584 
L 285.76 307.584 
L 285.76 307.584 
L 281.250909 307.584 
z
" clip-path="url(#pc881bd25af)" style="fill: #008000; opacity: 0.75"/>
   </g>
   <g id="patch_50">
    <path d="M 285.76 307.584 
L 290.269091 307.584 
L 290.269091 307.584 
L 285.76 307.584 
z
" clip-path="url(#pc881bd25af)" style="fill: #008000; opacity: 0.75"/>
   </g>
   <g id="patch_51">
    <path d="M 290.269091 307.584 
L 294.778182 307.584 
L 294.778182 307.584 
L 290.269091 307.584 
z
" clip-path="url(#pc881bd25af)" style="fill: #008000; opacity: 0.75"/>
   </g>
   <g id="patch_52">
    <path d="M 294.778182 307.584 
L 299.287273 307.584 
L 299.287273 307.584 
L 294.778182 307.584 
z
" clip-path="url(#pc881bd25af)" style="fill: #008000; opacity: 0.75"/>
   </g>
   <g id="patch_53">
    <path d="M 299.287273 307.584 
L 303.796364 307.584 
L 303.796364 307.584 
L 299.287273 307.584 
z
" clip-path="url(#pc881bd25af)" style="fill: #008000; opacity: 0.75"/>
   </g>
   <g id="patch_54">
    <path d="M 303.796364 307.584 
L 308.305455 307.584 
L 308.305455 307.584 
L 303.796364 307.584 
z
" clip-path="url(#pc881bd25af)" style="fill: #008000; opacity: 0.75"/>
   </g>
   <g id="patch_55">
    <path d="M 308.305455 307.584 
L 312.814545 307.584 
L 312.814545 307.584 
L 308.305455 307.584 
z
" clip-path="url(#pc881bd25af)" style="fill: #008000; opacity: 0.75"/>
   </g>
   <g id="patch_56">
    <path d="M 312.814545 307.584 
L 317.323636 307.584 
L 317.323636 307.584 
L 312.814545 307.584 
z
" clip-path="url(#pc881bd25af)" style="fill: #008000; opacity: 0.75"/>
   </g>
   <g id="patch_57">
    <path d="M 317.323636 307.584 
L 321.832727 307.584 
L 321.832727 307.584 
L 317.323636 307.584 
z
" clip-path="url(#pc881bd25af)" style="fill: #008000; opacity: 0.75"/>
   </g>
   <g id="patch_58">
    <path d="M 321.832727 307.584 
L 326.341818 307.584 
L 326.341818 304.858839 
L 321.832727 304.858839 
z
" clip-path="url(#pc881bd25af)" style="fill: #008000; opacity: 0.75"/>
   </g>
   <g id="patch_59">
    <path d="M 326.341818 307.584 
L 330.850909 307.584 
L 330.850909 307.584 
L 326.341818 307.584 
z
" clip-path="url(#pc881bd25af)" style="fill: #008000; opacity: 0.75"/>
   </g>
   <g id="patch_60">
    <path d="M 330.850909 307.584 
L 335.36 307.584 
L 335.36 307.584 
L 330.850909 307.584 
z
" clip-path="url(#pc881bd25af)" style="fill: #008000; opacity: 0.75"/>
   </g>
   <g id="patch_61">
    <path d="M 335.36 307.584 
L 339.869091 307.584 
L 339.869091 307.584 
L 335.36 307.584 
z
" clip-path="url(#pc881bd25af)" style="fill: #008000; opacity: 0.75"/>
   </g>
   <g id="patch_62">
    <path d="M 339.869091 307.584 
L 344.378182 307.584 
L 344.378182 307.584 
L 339.869091 307.584 
z
" clip-path="url(#pc881bd25af)" style="fill: #008000; opacity: 0.75"/>
   </g>
   <g id="patch_63">
    <path d="M 344.378182 307.584 
L 348.887273 307.584 
L 348.887273 307.584 
L 344.378182 307.584 
z
" clip-path="url(#pc881bd25af)" style="fill: #008000; opacity: 0.75"/>
   </g>
   <g id="patch_64">
    <path d="M 348.887273 307.584 
L 353.396364 307.584 
L 353.396364 307.584 
L 348.887273 307.584 
z
" clip-path="url(#pc881bd25af)" style="fill: #008000; opacity: 0.75"/>
   </g>
   <g id="patch_65">
    <path d="M 353.396364 307.584 
L 357.905455 307.584 
L 357.905455 304.858839 
L 353.396364 304.858839 
z
" clip-path="url(#pc881bd25af)" style="fill: #008000; opacity: 0.75"/>
   </g>
   <g id="patch_66">
    <path d="M 357.905455 307.584 
L 362.414545 307.584 
L 362.414545 307.584 
L 357.905455 307.584 
z
" clip-path="url(#pc881bd25af)" style="fill: #008000; opacity: 0.75"/>
   </g>
   <g id="patch_67">
    <path d="M 362.414545 307.584 
L 366.923636 307.584 
L 366.923636 307.584 
L 362.414545 307.584 
z
" clip-path="url(#pc881bd25af)" style="fill: #008000; opacity: 0.75"/>
   </g>
   <g id="patch_68">
    <path d="M 366.923636 307.584 
L 371.432727 307.584 
L 371.432727 307.584 
L 366.923636 307.584 
z
" clip-path="url(#pc881bd25af)" style="fill: #008000; opacity: 0.75"/>
   </g>
   <g id="patch_69">
    <path d="M 371.432727 307.584 
L 375.941818 307.584 
L 375.941818 307.584 
L 371.432727 307.584 
z
" clip-path="url(#pc881bd25af)" style="fill: #008000; opacity: 0.75"/>
   </g>
   <g id="patch_70">
    <path d="M 375.941818 307.584 
L 380.450909 307.584 
L 380.450909 307.584 
L 375.941818 307.584 
z
" clip-path="url(#pc881bd25af)" style="fill: #008000; opacity: 0.75"/>
   </g>
   <g id="patch_71">
    <path d="M 380.450909 307.584 
L 384.96 307.584 
L 384.96 307.584 
L 380.450909 307.584 
z
" clip-path="url(#pc881bd25af)" style="fill: #008000; opacity: 0.75"/>
   </g>
   <g id="patch_72">
    <path d="M 384.96 307.584 
L 389.469091 307.584 
L 389.469091 307.584 
L 384.96 307.584 
z
" clip-path="url(#pc881bd25af)" style="fill: #008000; opacity: 0.75"/>
   </g>
   <g id="patch_73">
    <path d="M 389.469091 307.584 
L 393.978182 307.584 
L 393.978182 307.584 
L 389.469091 307.584 
z
" clip-path="url(#pc881bd25af)" style="fill: #008000; opacity: 0.75"/>
   </g>
   <g id="patch_74">
    <path d="M 393.978182 307.584 
L 398.487273 307.584 
L 398.487273 304.858839 
L 393.978182 304.858839 
z
" clip-path="url(#pc881bd25af)" style="fill: #008000; opacity: 0.75"/>
   </g>
   <g id="matplotlib.axis_1">
    <g id="xtick_1">
     <g id="line2d_1">
      <defs>
       <path id="m6b55b767b8" d="M 0 0 
L 0 3.5 
" style="stroke: #000000; stroke-width: 0.8"/>
      </defs>
      <g>
       <use xlink:href="#m6b55b767b8" x="89.148173" y="307.584" style="stroke: #000000; stroke-width: 0.8"/>
      </g>
     </g>
     <g id="text_1">
      <!-- −4.4 -->
      <g transform="translate(77.006766 322.182437) scale(0.1 -0.1)">
       <defs>
        <path id="DejaVuSans-2212" d="M 678 2272 
L 4684 2272 
L 4684 1741 
L 678 1741 
L 678 2272 
z
" transform="scale(0.015625)"/>
        <path id="DejaVuSans-34" d="M 2419 4116 
L 825 1625 
L 2419 1625 
L 2419 4116 
z
M 2253 4666 
L 3047 4666 
L 3047 1625 
L 3713 1625 
L 3713 1100 
L 3047 1100 
L 3047 0 
L 2419 0 
L 2419 1100 
L 313 1100 
L 313 1709 
L 2253 4666 
z
" transform="scale(0.015625)"/>
        <path id="DejaVuSans-2e" d="M 684 794 
L 1344 794 
L 1344 0 
L 684 0 
L 684 794 
z
" transform="scale(0.015625)"/>
       </defs>
       <use xlink:href="#DejaVuSans-2212"/>
       <use xlink:href="#DejaVuSans-34" x="83.789062"/>
       <use xlink:href="#DejaVuSans-2e" x="147.412109"/>
       <use xlink:href="#DejaVuSans-34" x="179.199219"/>
      </g>
     </g>
    </g>
    <g id="xtick_2">
     <g id="line2d_2">
      <g>
       <use xlink:href="#m6b55b767b8" x="137.272103" y="307.584" style="stroke: #000000; stroke-width: 0.8"/>
      </g>
     </g>
     <g id="text_2">
      <!-- −4.2 -->
      <g transform="translate(125.130697 322.182437) scale(0.1 -0.1)">
       <defs>
        <path id="DejaVuSans-32" d="M 1228 531 
L 3431 531 
L 3431 0 
L 469 0 
L 469 531 
Q 828 903 1448 1529 
Q 2069 2156 2228 2338 
Q 2531 2678 2651 2914 
Q 2772 3150 2772 3378 
Q 2772 3750 2511 3984 
Q 2250 4219 1831 4219 
Q 1534 4219 1204 4116 
Q 875 4013 500 3803 
L 500 4441 
Q 881 4594 1212 4672 
Q 1544 4750 1819 4750 
Q 2544 4750 2975 4387 
Q 3406 4025 3406 3419 
Q 3406 3131 3298 2873 
Q 3191 2616 2906 2266 
Q 2828 2175 2409 1742 
Q 1991 1309 1228 531 
z
" transform="scale(0.015625)"/>
       </defs>
       <use xlink:href="#DejaVuSans-2212"/>
       <use xlink:href="#DejaVuSans-34" x="83.789062"/>
       <use xlink:href="#DejaVuSans-2e" x="147.412109"/>
       <use xlink:href="#DejaVuSans-32" x="179.199219"/>
      </g>
     </g>
    </g>
    <g id="xtick_3">
     <g id="line2d_3">
      <g>
       <use xlink:href="#m6b55b767b8" x="185.396033" y="307.584" style="stroke: #000000; stroke-width: 0.8"/>
      </g>
     </g>
     <g id="text_3">
      <!-- −4.0 -->
      <g transform="translate(173.254627 322.182437) scale(0.1 -0.1)">
       <defs>
        <path id="DejaVuSans-30" d="M 2034 4250 
Q 1547 4250 1301 3770 
Q 1056 3291 1056 2328 
Q 1056 1369 1301 889 
Q 1547 409 2034 409 
Q 2525 409 2770 889 
Q 3016 1369 3016 2328 
Q 3016 3291 2770 3770 
Q 2525 4250 2034 4250 
z
M 2034 4750 
Q 2819 4750 3233 4129 
Q 3647 3509 3647 2328 
Q 3647 1150 3233 529 
Q 2819 -91 2034 -91 
Q 1250 -91 836 529 
Q 422 1150 422 2328 
Q 422 3509 836 4129 
Q 1250 4750 2034 4750 
z
" transform="scale(0.015625)"/>
       </defs>
       <use xlink:href="#DejaVuSans-2212"/>
       <use xlink:href="#DejaVuSans-34" x="83.789062"/>
       <use xlink:href="#DejaVuSans-2e" x="147.412109"/>
       <use xlink:href="#DejaVuSans-30" x="179.199219"/>
      </g>
     </g>
    </g>
    <g id="xtick_4">
     <g id="line2d_4">
      <g>
       <use xlink:href="#m6b55b767b8" x="233.519963" y="307.584" style="stroke: #000000; stroke-width: 0.8"/>
      </g>
     </g>
     <g id="text_4">
      <!-- −3.8 -->
      <g transform="translate(221.378557 322.182437) scale(0.1 -0.1)">
       <defs>
        <path id="DejaVuSans-33" d="M 2597 2516 
Q 3050 2419 3304 2112 
Q 3559 1806 3559 1356 
Q 3559 666 3084 287 
Q 2609 -91 1734 -91 
Q 1441 -91 1130 -33 
Q 819 25 488 141 
L 488 750 
Q 750 597 1062 519 
Q 1375 441 1716 441 
Q 2309 441 2620 675 
Q 2931 909 2931 1356 
Q 2931 1769 2642 2001 
Q 2353 2234 1838 2234 
L 1294 2234 
L 1294 2753 
L 1863 2753 
Q 2328 2753 2575 2939 
Q 2822 3125 2822 3475 
Q 2822 3834 2567 4026 
Q 2313 4219 1838 4219 
Q 1578 4219 1281 4162 
Q 984 4106 628 3988 
L 628 4550 
Q 988 4650 1302 4700 
Q 1616 4750 1894 4750 
Q 2613 4750 3031 4423 
Q 3450 4097 3450 3541 
Q 3450 3153 3228 2886 
Q 3006 2619 2597 2516 
z
" transform="scale(0.015625)"/>
        <path id="DejaVuSans-38" d="M 2034 2216 
Q 1584 2216 1326 1975 
Q 1069 1734 1069 1313 
Q 1069 891 1326 650 
Q 1584 409 2034 409 
Q 2484 409 2743 651 
Q 3003 894 3003 1313 
Q 3003 1734 2745 1975 
Q 2488 2216 2034 2216 
z
M 1403 2484 
Q 997 2584 770 2862 
Q 544 3141 544 3541 
Q 544 4100 942 4425 
Q 1341 4750 2034 4750 
Q 2731 4750 3128 4425 
Q 3525 4100 3525 3541 
Q 3525 3141 3298 2862 
Q 3072 2584 2669 2484 
Q 3125 2378 3379 2068 
Q 3634 1759 3634 1313 
Q 3634 634 3220 271 
Q 2806 -91 2034 -91 
Q 1263 -91 848 271 
Q 434 634 434 1313 
Q 434 1759 690 2068 
Q 947 2378 1403 2484 
z
M 1172 3481 
Q 1172 3119 1398 2916 
Q 1625 2713 2034 2713 
Q 2441 2713 2670 2916 
Q 2900 3119 2900 3481 
Q 2900 3844 2670 4047 
Q 2441 4250 2034 4250 
Q 1625 4250 1398 4047 
Q 1172 3844 1172 3481 
z
" transform="scale(0.015625)"/>
       </defs>
       <use xlink:href="#DejaVuSans-2212"/>
       <use xlink:href="#DejaVuSans-33" x="83.789062"/>
       <use xlink:href="#DejaVuSans-2e" x="147.412109"/>
       <use xlink:href="#DejaVuSans-38" x="179.199219"/>
      </g>
     </g>
    </g>
    <g id="xtick_5">
     <g id="line2d_5">
      <g>
       <use xlink:href="#m6b55b767b8" x="281.643893" y="307.584" style="stroke: #000000; stroke-width: 0.8"/>
      </g>
     </g>
     <g id="text_5">
      <!-- −3.6 -->
      <g transform="translate(269.502487 322.182437) scale(0.1 -0.1)">
       <defs>
        <path id="DejaVuSans-36" d="M 2113 2584 
Q 1688 2584 1439 2293 
Q 1191 2003 1191 1497 
Q 1191 994 1439 701 
Q 1688 409 2113 409 
Q 2538 409 2786 701 
Q 3034 994 3034 1497 
Q 3034 2003 2786 2293 
Q 2538 2584 2113 2584 
z
M 3366 4563 
L 3366 3988 
Q 3128 4100 2886 4159 
Q 2644 4219 2406 4219 
Q 1781 4219 1451 3797 
Q 1122 3375 1075 2522 
Q 1259 2794 1537 2939 
Q 1816 3084 2150 3084 
Q 2853 3084 3261 2657 
Q 3669 2231 3669 1497 
Q 3669 778 3244 343 
Q 2819 -91 2113 -91 
Q 1303 -91 875 529 
Q 447 1150 447 2328 
Q 447 3434 972 4092 
Q 1497 4750 2381 4750 
Q 2619 4750 2861 4703 
Q 3103 4656 3366 4563 
z
" transform="scale(0.015625)"/>
       </defs>
       <use xlink:href="#DejaVuSans-2212"/>
       <use xlink:href="#DejaVuSans-33" x="83.789062"/>
       <use xlink:href="#DejaVuSans-2e" x="147.412109"/>
       <use xlink:href="#DejaVuSans-36" x="179.199219"/>
      </g>
     </g>
    </g>
    <g id="xtick_6">
     <g id="line2d_6">
      <g>
       <use xlink:href="#m6b55b767b8" x="329.767823" y="307.584" style="stroke: #000000; stroke-width: 0.8"/>
      </g>
     </g>
     <g id="text_6">
      <!-- −3.4 -->
      <g transform="translate(317.626417 322.182437) scale(0.1 -0.1)">
       <use xlink:href="#DejaVuSans-2212"/>
       <use xlink:href="#DejaVuSans-33" x="83.789062"/>
       <use xlink:href="#DejaVuSans-2e" x="147.412109"/>
       <use xlink:href="#DejaVuSans-34" x="179.199219"/>
      </g>
     </g>
    </g>
    <g id="xtick_7">
     <g id="line2d_7">
      <g>
       <use xlink:href="#m6b55b767b8" x="377.891754" y="307.584" style="stroke: #000000; stroke-width: 0.8"/>
      </g>
     </g>
     <g id="text_7">
      <!-- −3.2 -->
      <g transform="translate(365.750347 322.182437) scale(0.1 -0.1)">
       <use xlink:href="#DejaVuSans-2212"/>
       <use xlink:href="#DejaVuSans-33" x="83.789062"/>
       <use xlink:href="#DejaVuSans-2e" x="147.412109"/>
       <use xlink:href="#DejaVuSans-32" x="179.199219"/>
      </g>
     </g>
    </g>
   </g>
   <g id="matplotlib.axis_2">
    <g id="ytick_1">
     <g id="line2d_8">
      <defs>
       <path id="m2ab01cf71a" d="M 0 0 
L -3.5 0 
" style="stroke: #000000; stroke-width: 0.8"/>
      </defs>
      <g>
       <use xlink:href="#m2ab01cf71a" x="57.6" y="307.584" style="stroke: #000000; stroke-width: 0.8"/>
      </g>
     </g>
     <g id="text_8">
      <!-- 0 -->
      <g transform="translate(44.2375 311.383219) scale(0.1 -0.1)">
       <use xlink:href="#DejaVuSans-30"/>
      </g>
     </g>
    </g>
    <g id="ytick_2">
     <g id="line2d_9">
      <g>
       <use xlink:href="#m2ab01cf71a" x="57.6" y="253.080774" style="stroke: #000000; stroke-width: 0.8"/>
      </g>
     </g>
     <g id="text_9">
      <!-- 20 -->
      <g transform="translate(37.875 256.879993) scale(0.1 -0.1)">
       <use xlink:href="#DejaVuSans-32"/>
       <use xlink:href="#DejaVuSans-30" x="63.623047"/>
      </g>
     </g>
    </g>
    <g id="ytick_3">
     <g id="line2d_10">
      <g>
       <use xlink:href="#m2ab01cf71a" x="57.6" y="198.577548" style="stroke: #000000; stroke-width: 0.8"/>
      </g>
     </g>
     <g id="text_10">
      <!-- 40 -->
      <g transform="translate(37.875 202.376767) scale(0.1 -0.1)">
       <use xlink:href="#DejaVuSans-34"/>
       <use xlink:href="#DejaVuSans-30" x="63.623047"/>
      </g>
     </g>
    </g>
    <g id="ytick_4">
     <g id="line2d_11">
      <g>
       <use xlink:href="#m2ab01cf71a" x="57.6" y="144.074323" style="stroke: #000000; stroke-width: 0.8"/>
      </g>
     </g>
     <g id="text_11">
      <!-- 60 -->
      <g transform="translate(37.875 147.873541) scale(0.1 -0.1)">
       <use xlink:href="#DejaVuSans-36"/>
       <use xlink:href="#DejaVuSans-30" x="63.623047"/>
      </g>
     </g>
    </g>
    <g id="ytick_5">
     <g id="line2d_12">
      <g>
       <use xlink:href="#m2ab01cf71a" x="57.6" y="89.571097" style="stroke: #000000; stroke-width: 0.8"/>
      </g>
     </g>
     <g id="text_12">
      <!-- 80 -->
      <g transform="translate(37.875 93.370316) scale(0.1 -0.1)">
       <use xlink:href="#DejaVuSans-38"/>
       <use xlink:href="#DejaVuSans-30" x="63.623047"/>
      </g>
     </g>
    </g>
   </g>
   <g id="patch_75">
    <path d="M 57.6 307.584 
L 57.6 41.472 
" style="fill: none; stroke: #000000; stroke-width: 0.8; stroke-linejoin: miter; stroke-linecap: square"/>
   </g>
   <g id="patch_76">
    <path d="M 414.72 307.584 
L 414.72 41.472 
" style="fill: none; stroke: #000000; stroke-width: 0.8; stroke-linejoin: miter; stroke-linecap: square"/>
   </g>
   <g id="patch_77">
    <path d="M 57.6 307.584 
L 414.72 307.584 
" style="fill: none; stroke: #000000; stroke-width: 0.8; stroke-linejoin: miter; stroke-linecap: square"/>
   </g>
   <g id="patch_78">
    <path d="M 57.6 41.472 
L 414.72 41.472 
" style="fill: none; stroke: #000000; stroke-width: 0.8; stroke-linejoin: miter; stroke-linecap: square"/>
   </g>
  </g>
 </g>
 <defs>
  <clipPath id="pc881bd25af">
   <rect x="57.6" y="41.472" width="357.12" height="266.112"/>
  </clipPath>
 </defs>
</svg>
